<svg width="66" height="58" viewBox="0 0 66 58" fill="none" xmlns="http://www.w3.org/2000/svg">
<path d="M48.9173 3.74037e-05C46.684 -0.00387328 44.472 0.434009 42.4086 1.28847C40.3452 2.14294 38.4713 3.39711 36.8946 4.97878L16.8528 25.0166L12.8452 21.009C12.3033 20.4863 11.871 19.8608 11.5736 19.1691C11.2761 18.4774 11.1194 17.7333 11.1126 16.9804C11.1059 16.2275 11.2492 15.4808 11.5342 14.7839C11.8192 14.0869 12.2403 13.4538 12.7727 12.9214C13.3051 12.389 13.9382 11.9679 14.6352 11.6829C15.3321 11.3979 16.0788 11.2546 16.8317 11.2613C17.5846 11.2681 18.3287 11.4248 19.0204 11.7223C19.7121 12.0197 20.3376 12.452 20.8604 12.9939L28.8794 4.97878C25.6773 1.85535 21.3734 0.119409 16.9003 0.147062C12.4272 0.174715 8.14505 1.96374 4.98175 5.12651C1.81846 8.28929 0.0287334 12.5711 0.000342964 17.0442C-0.0280475 21.5173 1.70718 25.8215 4.83008 29.0242L16.8528 41.0469L56.2467 1.65301C53.9583 0.559625 51.4534 -0.00529515 48.9173 3.74037e-05Z" fill="#782BF1"/>
<path d="M64.262 9.67212L48.9175 25.0206L44.9099 21.0091L36.8948 29.0242L40.9023 33.0318L24.8721 49.062L32.8872 57.0811L60.9402 29.0282C63.4266 26.5408 65.081 23.3441 65.6759 19.8778C66.2708 16.4116 65.7768 12.8461 64.262 9.67212Z" fill="#782BF1"/>
</svg>
